HIERARCHY
ROOT joint_Root
{
	OFFSET 0.0 0.0 0.0
	CHANNELS 6 Xposition Yposition Zposition Zrotation Xrotation Yrotation 
	JOINT Hips
	{
		OFFSET 4.5925 91.4895 -427.239
		CHANNELS 6 Xposition Yposition Zposition Zrotation Xrotation Yrotation 
		JOINT Spine
		{
			OFFSET 15.7357 0.0 0.0
			CHANNELS 6 Xposition Yposition Zposition Zrotation Xrotation Yrotation 
			JOINT Chest
			{
				OFFSET 8.98455 -0.406207 0.0
				CHANNELS 6 Xposition Yposition Zposition Zrotation Xrotation Yrotation 
				JOINT Neck
				{
					OFFSET 16.3773 0.0 0.0
					CHANNELS 6 Xposition Yposition Zposition Zrotation Xrotation Yrotation 
					JOINT Head
					{
						OFFSET 6.45672 0.0 0.0
						CHANNELS 6 Xposition Yposition Zposition Zrotation Xrotation Yrotation 
						End Site
						{
							OFFSET 0.0 0.0 0.0
						}
					}
				}
				JOINT Shoulder_L
				{
					OFFSET 12.9942 -0.242716 4.98039
					CHANNELS 6 Xposition Yposition Zposition Zrotation Xrotation Yrotation 
					JOINT UpperArm_L
					{
						OFFSET 5.34809 0.0 0.0
						CHANNELS 6 Xposition Yposition Zposition Zrotation Xrotation Yrotation 
						JOINT LowerArm_L
						{
							OFFSET 24.3286 1.87007e-05 0.0
							CHANNELS 6 Xposition Yposition Zposition Zrotation Xrotation Yrotation 
							JOINT Hand_L
							{
								OFFSET 22.2916 0.0 0.0
								CHANNELS 6 Xposition Yposition Zposition Zrotation Xrotation Yrotation 
								End Site
								{
									OFFSET 0.0 0.0 0.0
								}
							}
						}
					}
				}
				JOINT Shoulder_R
				{
					OFFSET 12.9945 -0.242716 -4.98039
					CHANNELS 6 Xposition Yposition Zposition Zrotation Xrotation Yrotation 
					JOINT UpperArm_R
					{
						OFFSET -5.34813 0.0 0.0
						CHANNELS 6 Xposition Yposition Zposition Zrotation Xrotation Yrotation 
						JOINT LowerArm_R
						{
							OFFSET -24.3289 0.000322201 0.0
							CHANNELS 6 Xposition Yposition Zposition Zrotation Xrotation Yrotation 
							JOINT Hand_R
							{
								OFFSET -22.2915 -0.000108084 0.0
								CHANNELS 6 Xposition Yposition Zposition Zrotation Xrotation Yrotation 
								End Site
								{
									OFFSET 0.0 0.0 0.0
								}
							}
						}
					}
				}
			}
		}
		JOINT UpperLeg_L
		{
			OFFSET -2.19248 -6.46944 0.0
			CHANNELS 6 Xposition Yposition Zposition Zrotation Xrotation Yrotation 
			JOINT LowerLeg_L
			{
				OFFSET 39.0811 0.0 -1.23785e-05
				CHANNELS 6 Xposition Yposition Zposition Zrotation Xrotation Yrotation 
				JOINT Foot_L
				{
					OFFSET 40.9854 0.0 -1.26872e-05
					CHANNELS 6 Xposition Yposition Zposition Zrotation Xrotation Yrotation 
					JOINT Toes_L
					{
						OFFSET 11.7543 0.0 0.0
						CHANNELS 6 Xposition Yposition Zposition Zrotation Xrotation Yrotation 
						End Site
						{
							OFFSET 0.0 0.0 0.0
						}
					}
				}
			}
		}
		JOINT UpperLeg_R
		{
			OFFSET -2.19251 6.46944 0.0
			CHANNELS 6 Xposition Yposition Zposition Zrotation Xrotation Yrotation 
			JOINT LowerLeg_R
			{
				OFFSET -39.0811 -0.00228153 -0.0401928
				CHANNELS 6 Xposition Yposition Zposition Zrotation Xrotation Yrotation 
				JOINT Foot_R
				{
					OFFSET -40.9854 0.0 0.0
					CHANNELS 6 Xposition Yposition Zposition Zrotation Xrotation Yrotation 
					JOINT Toes_R
					{
						OFFSET -11.7543 0.0 0.0
						CHANNELS 6 Xposition Yposition Zposition Zrotation Xrotation Yrotation 
						End Site
						{
							OFFSET 0.0 0.0 0.0
						}
					}
				}
			}
		}
	}
}
MOTION
Frames:	9
Frame Time:	0.0333333
0.000000 0.000000 0.000000 0.000000 0.000000 -0.000000 -3.549610 82.112000 -1.481120 86.247300 -0.560955 9.726800 15.735700 0.000005 -0.000001 83.066000 81.295100 -82.216900 8.984550 -0.406207 -0.000000 9.537170 -2.076550 1.870350 16.377300 -0.000001 -0.000001 -2.390520 -1.084950 1.030210 6.456720 -0.000001 -0.000000 -2.651060 2.078980 -2.308200 12.994200 -0.242716 4.980390 -91.313600 4.467520 -73.596300 5.348090 -0.000007 -0.000001 -66.584800 23.968600 -8.010200 24.328600 0.000019 0.000005 11.683600 18.627500 -32.919100 22.291600 -0.000001 0.000005 16.489500 5.245400 1.539200 12.994500 -0.242716 -4.980390 87.893300 10.324300 -78.400600 -5.348130 -0.000001 -0.000004 -53.968700 19.082100 -13.693400 -24.328900 0.000322 -0.000009 -0.088234 -0.084666 -45.863300 -22.291500 -0.000108 -0.000004 15.336700 5.390230 -2.618370 -2.192480 -6.469440 -0.000000 -168.069000 -12.377100 -17.191900 39.081100 -0.000007 -0.000012 -0.310705 0.158497 62.974000 40.985400 -0.000006 -0.000013 2.111650 11.201400 -85.691700 11.754300 -0.000000 0.000003 -0.000174 -0.001648 -16.639900 -2.192510 6.469440 -0.000001 -178.394000 15.538000 164.627000 -39.081100 -0.002282 -0.040193 0.081111 -0.042385 61.455800 -40.985400 0.000008 0.000006 10.326100 5.385850 -86.734300 -11.754300 -0.000006 -0.000006 -0.904752 -1.124920 -16.597200
0.000000 0.000000 0.000000 0.000000 0.000000 -0.000000 -4.037630 83.578100 -0.791399 85.707100 2.146020 9.963740 15.735700 0.000005 -0.000001 82.028300 81.951400 -81.832300 8.984550 -0.406207 -0.000000 8.184040 -2.221760 0.550772 16.377300 -0.000001 -0.000001 -1.107190 -1.723720 1.076390 6.456720 -0.000001 -0.000000 -0.904576 0.894097 -0.560819 12.994200 -0.242716 4.980390 -91.358800 4.462700 -73.046100 5.348090 -0.000007 -0.000001 -67.788700 21.912100 -7.137850 24.328600 0.000019 0.000005 8.938790 16.107200 -29.546500 22.291600 -0.000001 0.000005 18.043800 5.173290 3.379500 12.994500 -0.242716 -4.980390 87.869300 9.737800 -77.593900 -5.348130 -0.000001 -0.000004 -51.474800 15.600600 -14.563100 -24.328900 0.000322 -0.000009 0.098798 0.089816 -47.971900 -22.291500 -0.000108 -0.000004 12.262300 5.388880 -2.579480 -2.192480 -6.469440 -0.000000 -167.538000 -10.329900 -15.171700 39.081100 -0.000007 -0.000012 -0.297626 0.180110 58.820500 40.985400 -0.000006 -0.000013 1.758680 12.011200 -83.791700 11.754300 -0.000000 0.000003 -0.000163 -0.001558 -16.636700 -2.192510 6.469440 -0.000001 -177.846000 17.109700 167.750000 -39.081100 -0.002282 -0.040193 0.078515 -0.049294 56.788800 -40.985400 0.000008 0.000006 9.773830 4.601620 -84.822900 -11.754300 -0.000006 -0.000006 -0.960934 -1.193610 -16.752800
0.000000 0.000000 0.000000 0.000000 0.000000 -0.000000 -4.286950 85.982700 -0.054818 85.483700 4.705690 9.821570 15.735700 0.000005 -0.000001 81.147200 82.828100 -81.835300 8.984550 -0.406207 -0.000000 6.397720 -2.192720 -1.252200 16.377300 -0.000001 -0.000001 0.886759 -2.431400 1.391720 6.456720 -0.000001 -0.000000 0.583989 -0.577630 1.549260 12.994200 -0.242716 4.980390 -91.326200 4.116610 -72.125700 5.348090 -0.000007 -0.000001 -68.532000 20.836000 -5.768510 24.328600 0.000019 0.000005 6.955020 13.957400 -26.828400 22.291600 -0.000001 0.000005 16.559800 5.175940 3.311820 12.994500 -0.242716 -4.980390 88.046400 8.218750 -76.578500 -5.348130 -0.000001 -0.000004 -45.370300 10.905300 -18.625600 -24.328900 0.000322 -0.000009 1.407900 1.138750 -51.033100 -22.291500 -0.000108 -0.000004 10.271600 5.387790 -2.542260 -2.192480 -6.469440 -0.000000 -167.714000 -8.081830 -11.824000 39.081100 -0.000007 -0.000012 -0.260422 0.208600 51.305700 40.985400 -0.000006 -0.000013 1.017490 12.379500 -80.236700 11.754300 -0.000000 0.000003 -0.000126 -0.001252 -16.625400 -2.192510 6.469440 -0.000001 -177.698000 18.455800 172.001000 -39.081100 -0.002282 -0.040193 0.064227 -0.053243 48.873000 -40.985400 0.000008 0.000006 9.005420 4.333810 -80.964100 -11.754300 -0.000006 -0.000006 -1.028210 -1.270170 -17.145800
0.000000 0.000000 0.000000 0.000000 0.000000 -0.000000 -4.198050 88.411500 0.402929 85.994000 6.294640 8.230350 15.735700 0.000005 -0.000001 80.949300 84.168600 -82.664800 8.984550 -0.406207 -0.000000 3.728860 -1.771820 -3.369790 16.377300 -0.000001 -0.000001 3.105840 -2.712330 1.512460 6.456720 -0.000001 -0.000000 1.970520 -1.734910 3.238140 12.994200 -0.242716 4.980390 -91.221800 3.531020 -70.896900 5.348090 -0.000007 -0.000001 -68.803800 19.631700 -3.741260 24.328600 0.000019 0.000005 8.170510 16.947600 -26.223000 22.291600 -0.000001 0.000005 12.622600 5.203240 2.628500 12.994500 -0.242716 -4.980390 88.509500 5.998100 -76.017800 -5.348130 -0.000001 -0.000004 -37.610600 1.560420 -24.930500 -24.328900 0.000322 -0.000009 1.854390 1.352020 -53.944500 -22.291500 -0.000108 -0.000004 10.578000 5.373620 -2.104720 -2.192480 -6.469440 -0.000000 -168.965000 -6.969590 -9.056320 39.081100 -0.000007 -0.000012 -0.187473 0.205166 42.420400 40.985400 -0.000006 -0.000013 0.237572 12.252000 -75.864900 11.754300 -0.000000 0.000003 -0.000071 -0.000766 -16.607100 -2.192510 6.469440 -0.000001 -178.121000 19.652600 174.994000 -39.081100 -0.002282 -0.040193 0.043980 -0.048270 40.138100 -40.985400 0.000008 0.000006 8.452560 5.164330 -76.335200 -11.754300 -0.000006 -0.000006 -0.961514 -1.173580 -17.769100
0.000000 0.000000 0.000000 0.000000 0.000000 -0.000000 -3.845470 90.248600 0.658028 86.598600 7.311450 6.613770 15.735700 0.000005 -0.000001 81.126300 85.326100 -83.597800 8.984550 -0.406207 -0.000000 1.446900 -1.305050 -4.922080 16.377300 -0.000001 -0.000001 4.589190 -2.512540 1.177040 6.456720 -0.000001 -0.000000 2.828780 -2.339490 3.757120 12.994200 -0.242716 4.980390 -91.259700 3.361980 -69.447000 5.348090 -0.000007 -0.000001 -68.152700 18.619600 -1.586750 24.328600 0.000019 0.000005 9.924960 20.112200 -26.969600 22.291600 -0.000001 0.000005 9.018560 5.216140 2.304920 12.994500 -0.242716 -4.980390 89.234900 3.185090 -76.495300 -5.348130 -0.000001 -0.000004 -29.610400 -12.490500 -32.167600 -24.328900 0.000322 -0.000009 -0.589025 -0.416933 -54.655700 -22.291500 -0.000108 -0.000004 14.688800 5.363740 -1.792340 -2.192480 -6.469440 -0.000000 -170.313000 -6.320180 -6.612770 39.081100 -0.000007 -0.000012 -0.146470 0.214599 34.315100 40.985400 -0.000006 -0.000013 -0.298561 11.964800 -71.851700 11.754300 -0.000000 0.000003 -0.000061 -0.000677 -16.603800 -2.192510 6.469440 -0.000001 -178.960000 21.523900 177.364000 -39.081100 -0.002282 -0.040193 0.027677 -0.038209 32.541200 -40.985400 0.000008 0.000006 7.983400 7.160010 -72.050500 -11.754300 -0.000006 -0.000006 -1.003940 -1.211410 -18.446700
0.000000 0.000000 0.000000 0.000000 0.000000 -0.000000 -3.397290 91.317300 0.791553 86.966700 7.879950 5.319110 15.735700 0.000005 -0.000001 86.893500 86.124700 -89.727400 8.984550 -0.406207 -0.000000 -0.026122 -0.227383 -5.664370 16.377300 -0.000001 -0.000001 4.883050 -2.582450 0.503387 6.456720 -0.000001 -0.000000 2.905510 -2.837960 3.454730 12.994200 -0.242716 4.980390 -91.523800 3.870370 -68.491600 5.348090 -0.000007 -0.000001 -66.289500 18.511600 -0.148657 24.328600 0.000019 0.000005 9.950770 19.991100 -27.165700 22.291600 -0.000001 0.000005 7.741530 5.223450 2.124290 12.994500 -0.242716 -4.980390 90.227900 -1.076100 -78.012500 -5.348130 -0.000001 -0.000004 -23.536000 -29.948700 -37.131400 -24.328900 0.000322 -0.000009 -4.381830 -3.196830 -53.952700 -22.291500 -0.000108 -0.000004 21.198500 5.430030 -3.871790 -2.192480 -6.469440 -0.000000 -171.256000 -6.285810 -5.032960 39.081100 -0.000007 -0.000012 -0.122894 0.224535 28.693200 40.985400 -0.000006 -0.000013 -0.461955 11.926600 -69.100000 11.754300 -0.000000 0.000003 -0.000055 -0.000618 -16.601500 -2.192510 6.469440 -0.000001 -179.837000 23.880100 179.078000 -39.081100 -0.002282 -0.040193 0.017282 -0.027312 27.097200 -40.985400 0.000008 0.000006 7.566820 9.888680 -69.288100 -11.754300 -0.000006 -0.000006 -0.927882 -1.114340 -18.802600
0.000000 0.000000 0.000000 0.000000 0.000000 -0.000000 -3.160230 91.820100 0.712101 87.356800 8.867610 3.937350 15.735700 0.000005 -0.000001 98.676600 86.581000 -101.887000 8.984550 -0.406207 -0.000000 -0.962523 1.275630 -6.407080 16.377300 -0.000001 -0.000001 4.477620 -3.516310 0.546543 6.456720 -0.000001 -0.000000 2.182680 -3.486980 2.477590 12.994200 -0.242716 4.980390 -91.808800 4.601340 -68.513200 5.348090 -0.000007 -0.000001 -63.160100 18.495300 0.385259 24.328600 0.000019 0.000005 9.986730 19.623700 -27.668500 22.291600 -0.000001 0.000005 8.855050 5.220780 2.190420 12.994500 -0.242716 -4.980390 91.331800 -6.287590 -78.018000 -5.348130 -0.000001 -0.000004 -22.535500 -47.946900 -43.543600 -24.328900 0.000322 -0.000009 -6.142570 -4.888600 -51.627700 -22.291500 -0.000108 -0.000004 24.484600 5.544880 -8.399570 -2.192480 -6.469440 -0.000000 -171.866000 -7.189400 -5.074350 39.081100 -0.000007 -0.000012 -0.095132 0.198353 25.623000 40.985400 -0.000006 -0.000013 -0.242473 13.505400 -67.393500 11.754300 -0.000000 0.000003 -0.000057 -0.000638 -16.602300 -2.192510 6.469440 -0.000001 179.682000 26.176700 179.815000 -39.081100 -0.002282 -0.040193 0.009292 -0.013876 23.302100 -40.985400 0.000008 0.000006 7.216000 11.870100 -68.362500 -11.754300 -0.000006 -0.000006 -0.539633 -0.662102 -18.306200
0.000000 0.000000 0.000000 0.000000 0.000000 -0.000000 -3.137520 92.003700 0.612198 88.037200 10.537600 3.168730 15.735700 0.000005 -0.000001 104.876000 86.629200 -108.520000 8.984550 -0.406207 -0.000000 -1.176090 2.014400 -7.264780 16.377300 -0.000001 -0.000001 4.012210 -4.909050 1.808280 6.456720 -0.000001 -0.000000 1.231020 -3.893180 0.335558 12.994200 -0.242716 4.980390 -92.104100 5.377640 -68.594200 5.348090 -0.000007 -0.000001 -60.111000 16.618800 0.607882 24.328600 0.000019 0.000005 11.181700 21.376000 -28.472700 22.291600 -0.000001 0.000005 11.216800 5.202150 2.661550 12.994500 -0.242716 -4.980390 92.882400 -11.261500 -75.550700 -5.348130 -0.000001 -0.000004 -29.553100 -60.639800 -57.953500 -24.328900 0.000322 -0.000009 -7.540100 -7.028810 -47.248800 -22.291500 -0.000108 -0.000004 27.498700 5.596490 -11.140300 -2.192480 -6.469440 -0.000000 -172.445000 -8.860360 -5.370730 39.081100 -0.000007 -0.000012 -0.061580 0.137561 24.116000 40.985400 -0.000006 -0.000013 0.239216 16.583100 -66.377900 11.754300 -0.000000 0.000003 -0.000051 -0.000574 -16.599800 -2.192510 6.469440 -0.000001 179.120000 28.066700 -179.468000 -39.081100 -0.002282 -0.040193 0.004267 -0.002472 20.958200 -40.985400 0.000008 0.000006 7.231750 12.107200 -68.659700 -11.754300 -0.000006 -0.000006 -0.002014 -0.028889 -17.747800
0.000000 0.000000 0.000000 0.000000 0.000000 -0.000000 -3.275190 92.117000 0.649708 88.508200 13.120700 2.688650 15.735700 0.000005 -0.000001 106.688000 86.652500 -110.780000 8.984550 -0.406207 -0.000000 -1.259980 2.244000 -8.157190 16.377300 -0.000001 -0.000001 4.320460 -6.527220 3.578830 6.456720 -0.000001 -0.000000 0.265457 -5.030990 0.155021 12.994200 -0.242716 4.980390 -92.205600 5.674730 -68.719500 5.348090 -0.000007 -0.000001 -58.502800 12.252000 0.465310 24.328600 0.000019 0.000005 12.776000 24.377700 -28.783500 22.291600 -0.000001 0.000005 13.777100 5.166950 3.525660 12.994500 -0.242716 -4.980390 94.353100 -13.622100 -72.090500 -5.348130 -0.000001 -0.000004 -31.125900 -67.080300 -68.116100 -24.328900 0.000322 -0.000009 -6.373510 -7.497030 -40.550200 -22.291500 -0.000108 -0.000004 24.735500 5.585760 -10.501200 -2.192480 -6.469440 -0.000000 -172.818000 -9.018790 -5.711690 39.081100 -0.000007 -0.000012 -0.047989 0.112820 23.043100 40.985400 -0.000006 -0.000013 0.465477 19.080400 -65.592100 11.754300 -0.000000 0.000003 -0.000053 -0.000594 -16.600600 -2.192510 6.469440 -0.000001 178.804000 30.210500 -178.800000 -39.081100 -0.002282 -0.040193 0.001410 0.005427 19.415100 -40.985400 0.000008 0.000006 7.279690 11.666900 -68.718900 -11.754300 -0.000006 -0.000006 -0.002319 -0.032638 -17.900300
